<svg xmlns="http://www.w3.org/2000/svg" viewBox="0 0 366.72 353.52">
  <path d="M216.2,28a50.33,50.33,0,0,0-5.8,3.3,63.87,63.87,0,0,0-8.7,6.55A57.1,57.1,0,0,0,195.15,115a56.43,56.43,0,0,0,16.35,14.34c.27.49.8.64,1.23.91a55.11,55.11,0,0,1,23.37,28.6,54.19,54.19,0,0,1,.25,37.83c-6.11,16.93-17.71,28.69-34.75,34.52-17.53,6-34.25,3.65-49.72-6.58a54.34,54.34,0,0,1-21.25-27.08,55.28,55.28,0,0,1-3.47-19.73c0-.32.18-.71-.21-1,0-.43.08-.87.06-1.29a55.56,55.56,0,0,0-14.43-35.58C100,126,84.12,119.81,65.41,121c-9,.55-17.19,3.69-25,7.85-2,1.09-4.09,2.18-6.1,3.33-6.82,3.88-13.61,7.79-20.42,11.67a2.8,2.8,0,0,0-1.49,2.66c0,10.49.07,21,0,31.47a56.49,56.49,0,0,0,7.89,29.32,58.62,58.62,0,0,0,5.57,7.93,53.79,53.79,0,0,0,15.08,12.69,55.61,55.61,0,0,1,17.77,16,53.15,53.15,0,0,1,6.66,12.57,54.59,54.59,0,0,1,3.58,19.75q0,12,0,24.05c0,2.83,0,8.55,0,8.56s.26.49.2.5c.24.41.17.09.41.5,0,0,0,0,.07.07s0,.09.07.06c.43.27.86.56,1.31.82,8.46,4.88,17,9.65,25.36,14.68a59.49,59.49,0,0,0,16.28,6.84,57.1,57.1,0,0,0,31.76-1A75,75,0,0,0,157,325.57a50.17,50.17,0,0,1,9.25-3.92c15.41-4.68,30.21-3.25,44.3,4.64,6.15,3.45,12.23,7,18.34,10.57,3.07,1.78,6.12,3.58,9.19,5.36a2.44,2.44,0,0,0,2.47.44c.1,0,.14.08.12.19l9.57-5.51,0-.11-.09-.07,18.21-10.47a59,59,0,0,0,7.8-5.14,58,58,0,0,0,21.52-45.06,55.31,55.31,0,0,1,6.67-26.11,53.56,53.56,0,0,1,19.65-20.81c2.19-1.32,4.37-2.66,6.61-3.9,2.73-1.5,5.39-3.14,8.09-4.7,4.64-2.68,9.26-5.4,13.94-8a3.39,3.39,0,0,0,1.9-3.4c-.07-3.82-.06-7.65,0-11.48.06-5.66-.12-11.32.13-17a56.9,56.9,0,0,0-5.5-27.38,58.7,58.7,0,0,0-8.05-12.59,56.9,56.9,0,0,0-16.28-13.29,34,34,0,0,1-3.28-2,53.7,53.7,0,0,1-13.51-13.55,56,56,0,0,1-6.71-12.94,52.31,52.31,0,0,1-3.29-17.88l0-33.13c0-.14,0-.2.16-.22l-1.08-1.87c-.06,0-.15.09-.18.07-9.06-5.27-18.13-10.51-27.17-15.82a57.52,57.52,0,0,0-24.32-7.82c-1.74-.15-3.46-.23-5.17-.23A55.79,55.79,0,0,0,216.2,28"/>
</svg>