<svg xmlns="http://www.w3.org/2000/svg" viewBox="0 0 366.72 353.52">
  <path d="M224.59,24.42c-15.16,4.53-26.54,13.84-34.18,27.7a55.48,55.48,0,0,0-6.89,27.11A55.54,55.54,0,0,1,175.37,109c-8.21,13.27-19.92,21.91-35.1,25.53A54.65,54.65,0,0,1,102,130c-3.81-1.92-7.5-4.11-11.56-5.48Q65.27,116,42.14,129.2c-9,5.15-17.91,10.45-26.87,15.68-.35.2-.65.6-1.15.47l-.36.63a.94.94,0,0,1,.1.31c.08,10.09.23,20.18.2,30.27a59.08,59.08,0,0,0,2.45,18.33c5.67,17.87,17.26,30.39,34.75,37,15.49,5.87,30.85,4.78,45.74-2.5,1.72-.84,3.37-1.82,5-2.82a16.22,16.22,0,0,1,4.85-2.37c2.81-.67,5.49-2,8.34-2.59,18.87-4.22,35.81-.14,50.37,12.49,12.66,11,18.73,25.25,19.14,41.95a58.9,58.9,0,0,0,2.36,15.84c4.11,13.58,12,24.45,24.06,31.92,9.84,6.1,20.1,11.56,30.16,17.32a1.78,1.78,0,0,0,2-.07c2.43-1.46,4.88-2.88,7.33-4.3,5.65-3.3,11.22-6.72,17-9.85,19.68-10.73,30.32-27.15,31.55-49.58.13-2.22-.15-4.48,0-6.69a55.7,55.7,0,0,1,11.37-29.76,52.35,52.35,0,0,1,14.94-13.58c9.46-5.64,19-11.16,28.51-16.68a2.44,2.44,0,0,0,1.37-2.47c-.08-10.49.09-21-.21-31.47-.61-21.5-10.16-38-28.62-49.06a58.67,58.67,0,0,1-19.89-19A53.71,53.71,0,0,1,298,81.35c-.35-11.28-.19-22.57-.21-33.86a2.3,2.3,0,0,0-1.31-2.29c-7.38-4.16-14.73-8.4-22.12-12.57-4.2-2.37-8.29-5-12.85-6.69A58.79,58.79,0,0,0,240.73,22a56.23,56.23,0,0,0-16.14,2.4"/>
</svg>