<svg xmlns="http://www.w3.org/2000/svg" viewBox="0 0 366.72 353.52">
  <path d="M354.88,177.81a69.42,69.42,0,0,0-.38-7.06,55.68,55.68,0,0,0-5.79-19.41,57.5,57.5,0,0,0-22.53-23.78A56.41,56.41,0,0,1,299,88.27,79.55,79.55,0,0,1,298.19,75c0-.8,0-1.6,0-2.4,0-8.48-.08-17-.08-25.43a2,2,0,0,0-1.19-2q-7.66-4.35-15.27-8.78c-2.87-1.65-5.81-3.18-8.57-5a57.25,57.25,0,0,0-36.88-9.61,55.78,55.78,0,0,0-25.37,8.38A31,31,0,0,1,207,32.26a55.47,55.47,0,0,1-19,4.63,56.51,56.51,0,0,1-13.37-.71,52.71,52.71,0,0,1-17-5.92c-9.59-5.44-19.12-11-28.65-16.53a2.66,2.66,0,0,0-1.36-.43,2.72,2.72,0,0,0-1.37.43q-13.51,7.86-27.09,15.63a55.06,55.06,0,0,0-13,10.28A56.44,56.44,0,0,0,70.45,79.33a53.79,53.79,0,0,1-2,14.44A56.15,56.15,0,0,1,52.65,120a68.43,68.43,0,0,1-13.16,9.34Q27.22,136.4,15,143.43a2.13,2.13,0,0,0-1.21,2.09c0,8.44,0,16.88,0,25.32,0,1.64.05,3.28,0,4.92a51,51,0,0,0,.52,9.32q3.84,25.1,24.73,39.59c1.71,1.18,3.59,2.09,5.33,3.22A56.41,56.41,0,0,1,59,241.4a55.85,55.85,0,0,1,11.45,34c0,4.95-.05,9.91,0,13.95,0,6.52,0,12.12,0,17.72a2,2,0,0,0,1.13,2c3.8,2.14,7.55,4.34,11.32,6.51,4.61,2.65,9.3,5.16,13.81,8a57.63,57.63,0,0,0,35.55,8.85A55.54,55.54,0,0,0,154.31,326c1.66-.88,3.22-2,4.9-2.78a56.07,56.07,0,0,1,31.9-5.46,55.26,55.26,0,0,1,21.11,7q13.86,8,27.7,16a1.92,1.92,0,0,0,2.21,0c2.32-1.4,4.68-2.75,7-4.11,6.22-3.6,12.39-7.3,18.68-10.78A58.52,58.52,0,0,0,287,309.31,56.25,56.25,0,0,0,298.05,279c.2-3,.13-6.07.42-9.1A55.32,55.32,0,0,1,307,245.13a54.47,54.47,0,0,1,18.39-17.9c9.37-5.51,18.8-10.9,28.22-16.31a2.3,2.3,0,0,0,1.31-2.28C354.88,198.36,354.88,188.09,354.88,177.81Zm-91.81-44a55.94,55.94,0,0,0-10.6,28.57c-.27,2.79-.14,5.58-.25,8.37a56.24,56.24,0,0,1-12.66,33.79,61.73,61.73,0,0,1-15.82,13.59,54.7,54.7,0,0,0-22.65,26.78,0,0,0,0,0,0,0,1.08,1.08,0,0,0-.08.19q0,.1-.09.12a5.14,5.14,0,0,1-8.44,1.22,3.44,3.44,0,0,1-.84-1.23c0-.1-.1-.19-.14-.29s0,0,0,0a56.52,56.52,0,0,0-13-18.21,54.34,54.34,0,0,0-31.36-14.84,57.71,57.71,0,0,0-14.74,0l.13-.07a6,6,0,0,1-1,.12,5.16,5.16,0,0,1-4.22-8.28l-.12.07a56.62,56.62,0,0,0,10.44-25.91,64.28,64.28,0,0,0,.54-9.2A57.15,57.15,0,0,1,187,112.1a5.55,5.55,0,0,0,2.37-.47l10.08-.14a13.81,13.81,0,0,0,3.78.59,59,59,0,0,1,19.61,6.55q17.46,9.32,35,6.81l-.25.15a5.11,5.11,0,0,1,6.57,4.9,5.13,5.13,0,0,1-1.25,3.43Z"/>
</svg>