<svg xmlns="http://www.w3.org/2000/svg" viewBox="0 0 366.72 353.52">
  <path d="M71.1,266.65l0-.08,0,.08s0,.06,0,.06,0,0,0-.06M49.3,123.71h0l-.09,0,.09,0M70.14,87.85,70,88l.15-.1m0-.22v0M125.2,13c-2.83,1.71-5.7,3.36-8.56,5-5,2.93-9.86,6.05-15,8.75C82.05,37.15,71.26,53.26,69.49,75.38c-.21,2.63.18,5.28,0,7.9a56,56,0,0,1-11.34,29.89A52.75,52.75,0,0,1,43,126.9C33.57,132.52,24.08,138,14.6,143.53a2.38,2.38,0,0,0-1.31,2.4c.09,10.25,0,20.5.2,30.75.45,21.94,10.07,38.72,28.94,50a57.28,57.28,0,0,1,22,22.87,52.72,52.72,0,0,1,6.29,23.3c.31,11.36.2,22.74.23,34.1a2,2,0,0,0,1.18,1.87q7.73,4.36,15.44,8.78v0c3.44,2,6.92,3.85,10.31,5.9A58.28,58.28,0,0,0,110,329.13a57.31,57.31,0,0,0,74.68-46.76c.51-3.69.3-7.41.5-11.11a55.49,55.49,0,0,1,13.46-33.72,53.71,53.71,0,0,1,13.53-11.44c17.38-10.35,27.09-25.59,28.95-45.78.24-2.67,0-5.35.13-8a56,56,0,0,1,11.59-31,51.86,51.86,0,0,1,15.32-13.7A58,58,0,0,0,287.29,110a55.35,55.35,0,0,0,10-31.22c.09-11.12-.11-22.25-.16-33.38A1.83,1.83,0,0,0,296,43.68Q282.15,35.85,268.33,28a52.89,52.89,0,0,0-9.71-4.36C242,18.2,226.12,20,211,28.54a56.66,56.66,0,0,1-32.46,7.38c-9.87-.67-18.72-4.25-27.15-9.2-7.93-4.67-16-9.16-23.93-13.75a2.18,2.18,0,0,0-1.06-.32,2.21,2.21,0,0,0-1.15.38"/>
</svg>