<svg xmlns="http://www.w3.org/2000/svg" viewBox="0 0 366.72 353.52">
  <path d="M124,14.12c-8.48,5-16.82,10.26-25.39,15.14a53.11,53.11,0,0,0-11.91,9.35,62.87,62.87,0,0,0-6.42,8l-.23-.2L78.9,48.54l-4,7.12c.42.55-.1,1-.28,1.34a53.49,53.49,0,0,0-2.71,7.55,57.17,57.17,0,0,0,32.58,67.87A56.49,56.49,0,0,0,129.16,137a55,55,0,0,0,26.24-7.55,56.71,56.71,0,0,1,65.15,4.85,55.74,55.74,0,0,1,14.75,66.88,64.49,64.49,0,0,1-10.54,15.65,53.23,53.23,0,0,1-11.92,9.52,55.34,55.34,0,0,0-16.68,15.75,57.08,57.08,0,0,0,13.78,79.31c.52.37,1.06.72,1.56,1.12.29.22.17.38-.15.43l.42.24c.22-.72.58-.15.78,0,1.93,1.12,3.82,2.32,5.77,3.41,7.91,4.45,15.85,8.84,23.75,13.31a3.11,3.11,0,0,0,3.56-.05q4.58-2.83,9.22-5.55c4.77-2.76,9.36-5.81,14.23-8.39a58,58,0,0,0,21.35-18.75,59.78,59.78,0,0,0,7.09-14,56.68,56.68,0,0,0,3-21.19,31.07,31.07,0,0,1,.1-4.42,55.44,55.44,0,0,1,11.52-29,52.41,52.41,0,0,1,14.69-13.18Q341,217,355.14,208.54c.12-.07.19-.08.27,0l.94-1.67c-.29-.39-.08-.83-.08-1.23-.15-10.38-.22-20.75-.43-31.13a57,57,0,0,0-16.41-39.41,58.32,58.32,0,0,0-14-10.45,47.36,47.36,0,0,1-7.55-5.28,55.6,55.6,0,0,1-18.71-30.63,66.33,66.33,0,0,1-1.45-14.4q-.17-14.06-.3-28.13a3.69,3.69,0,0,0-.53-2.29c-.1-.13-.1-.29.11-.35L264.16,25.18c-.19.52-.51.17-.73.07A57.35,57.35,0,0,0,253.56,22c-15-3.54-29.19-1.29-42.51,6.41a56.94,56.94,0,0,1-14.89,6.19c-13.91,3.42-27.32,2-40-4.76C146.65,24.75,137.3,19.35,127.9,14a3.77,3.77,0,0,0-1.88-.56,3.81,3.81,0,0,0-2,.64"/>
</svg>