<svg xmlns="http://www.w3.org/2000/svg" viewBox="0 0 366.72 353.52">
  <path d="M126.15,13q-11,6.33-22,12.59c-1.42.81-2.82,1.67-4.27,2.44a50.39,50.39,0,0,0-7.83,5.07Q72.19,48.87,70,74.19c-.18,2.07,0,4.16-.14,6.23a56.57,56.57,0,0,1-4.46,19.42,55.93,55.93,0,0,1-23.84,26.83c-4.28,2.49-8.63,4.87-12.1,6.94-5.66,3.24-10.51,6-15.39,8.79a2,2,0,0,0-1.18,2c0,4.36,0,8.71,0,13.06,0,5.32.14,10.63,0,15.94a57.52,57.52,0,0,0,10,35.25,55.62,55.62,0,0,0,16.51,16c1.59,1,3.3,1.82,4.85,2.87a56.09,56.09,0,0,1,20.58,25,55.2,55.2,0,0,1,4.41,21.8q0,16-.13,32a1.92,1.92,0,0,0,1.09,1.92c2.37,1.32,4.71,2.7,7.06,4.06,6.22,3.61,12.49,7.13,18.63,10.86a58.56,58.56,0,0,0,23.9,8.4A56.19,56.19,0,0,0,151.46,326c2.73-1.33,5.34-2.9,8.11-4.15A55.34,55.34,0,0,1,185.33,317,54.54,54.54,0,0,1,210,324.05c9.43,5.39,18.8,10.9,28.17,16.39a2.27,2.27,0,0,0,2.63,0q13.33-7.72,26.73-15.37a63.9,63.9,0,0,0,5.94-3.83,55.67,55.67,0,0,0,14-14.66,57.51,57.51,0,0,0,9.45-31.36,56.39,56.39,0,0,1,20.58-43.16,79.88,79.88,0,0,1,11.14-7.24c.69-.4,1.4-.76,2.1-1.16,7.34-4.23,14.67-8.49,22-12.7a2,2,0,0,0,1.13-2c0-5.87,0-11.75,0-17.62,0-3.3-.12-6.62.09-9.91a57.39,57.39,0,0,0-10-36.79,55.9,55.9,0,0,0-19.88-17.85,32.27,32.27,0,0,1-3.73-2.38A55.28,55.28,0,0,1,307,110.23a56.78,56.78,0,0,1-6-12,52.79,52.79,0,0,1-3.3-17.69c0-11,0-22.05.13-33.07a2.38,2.38,0,0,0-1.36-2.37q-13.54-7.83-27-15.76A55.39,55.39,0,0,0,254,23.17a56.49,56.49,0,0,0-42.22,6.13,53.62,53.62,0,0,1-13.52,5.46,56.14,56.14,0,0,1-30.63-.71A68.13,68.13,0,0,1,153,27.27q-12.19-7.14-24.4-14.3a2.4,2.4,0,0,0-1.21-.38,2.37,2.37,0,0,0-1.2.37"/>
</svg>