<svg xmlns="http://www.w3.org/2000/svg" viewBox="0 0 366.72 353.52">
  <path d="M125.92,13.28q-13.48,7.83-27,15.58a57.15,57.15,0,0,0-28.74,49.5,58,58,0,0,1-.55,8,55.67,55.67,0,0,1-11.38,26.72,55.59,55.59,0,0,1-16.18,14.08Q28.5,135,15,142.81l-.57.32c-.61.37-1.11,3.22-1.11,6.34v24.9a44,44,0,0,0,.39,7l.05.66a45.31,45.31,0,0,0,.61,4.64,55.26,55.26,0,0,0,16.37,30.83C44.93,231,61.88,236,81.24,232.7c6.7-1.13,12.85-3.79,18.78-7a55.44,55.44,0,0,1,34.38-6.56,54.64,54.64,0,0,1,24.83,9.47,57.48,57.48,0,0,1,8.57,7.31,56.41,56.41,0,0,1,14.87,29.3,78.35,78.35,0,0,1,.92,11.34,52.88,52.88,0,0,0,.86,8.34q5,25.78,27.54,39.29c5.8,3.48,11.7,6.77,17.55,10.15l5.88,3.41c2.69,1.57,4.93,2.86,5,2.86a.74.74,0,0,0,.24-.05s.19.05.23.05a1.78,1.78,0,0,0,.53-.3l.21-.12,8.6-5c5.7-3.31,11.35-6.71,17.13-9.88a58.14,58.14,0,0,0,20.09-17.82,56.35,56.35,0,0,0,10.06-27.85c.25-2.83.17-5.67.36-8.5A55.57,55.57,0,0,1,305.08,247a54.83,54.83,0,0,1,20-20.43c9.37-5.51,18.81-10.9,28.22-16.34l.42-.23c.34-.38.63-3.24.63-6.35V178.75a60.31,60.31,0,0,0-.21-6.35v-.35a32.36,32.36,0,0,0-.83-6.65A56.74,56.74,0,0,0,327.18,128a78.2,78.2,0,0,1-8.71-5.94c-13.54-11.41-20.55-26-20.75-43.69-.12-10.48,0-21,0-31.44a2.29,2.29,0,0,0-1.32-2.28c-8.74-5-17.5-10-26.18-15.08a57,57,0,0,0-34.58-8,56.09,56.09,0,0,0-23.9,7.6c-.83.48-1.66.95-2.52,1.38a55.92,55.92,0,0,1-35.1,5.15,51.13,51.13,0,0,1-17-5.95c-9.56-5.44-19.07-11-28.57-16.48a2.66,2.66,0,0,0-1.33-.43,2.59,2.59,0,0,0-1.3.41"/>
</svg>